# xmcd CD database file
#
# Track frame offsets:
#	150
#	15003
#	48374
#	70391
#	94431
#	124131
#	144755
#	172524
#	200879
#	230230
#
# Disc length: 3358 seconds
#
# Revision: 0
# Processed by: cddbd v1.5.1PL0 Copyright (c) Steve Scherf et al.
# Submitted via: CDex 1.50Beta7
#
DISCID=830d1c0a
DTITLE=Trevor Watts - Moire Music Trio
DYEAR=1995
DGENRE=Jazz
TTITLE0=Jungle Strut
TTITLE1=End of the Road
TTITLE2=Latino Shuffle
TTITLE3=Mrs Robinson
TTITLE4=Gentle Love
TTITLE5=Mirage Waltz
TTITLE6=Yatra Groove
TTITLE7=Five in Disguise
TTITLE8=Pune Astic
TTITLE9=Now We're Fine
EXTD=YEAR: 1995
EXTT0=
EXTT1=
EXTT2=
EXTT3=
EXTT4=
EXTT5=
EXTT6=
EXTT7=
EXTT8=
EXTT9=
PLAYORDER=
